<mxfile host="app.diagrams.net" modified="2024-04-07T03:55:54.878Z" agent="Mozilla/5.0 (Windows NT 10.0; Win64; x64) AppleWebKit/537.36 (KHTML, like Gecko) Chrome/123.0.0.0 Safari/537.36" etag="kkChYgoWTvlkQAbcjReb" version="24.2.2" type="device">
  <diagram name="PÃ¡gina-1" id="t9WRHHbWQ3_ODfYGMGEe">
    <mxGraphModel dx="3654" dy="579" grid="1" gridSize="10" guides="1" tooltips="1" connect="1" arrows="1" fold="1" page="1" pageScale="1" pageWidth="827" pageHeight="1169" math="0" shadow="0">
      <root>
        <mxCell id="0" />
        <mxCell id="1" parent="0" />
        <mxCell id="FYp_cTO7IGaWXqHn_5oI-1" value="Personagem" style="shape=table;startSize=30;container=1;collapsible=1;childLayout=tableLayout;fixedRows=1;rowLines=0;fontStyle=1;align=center;resizeLast=1;html=1;" parent="1" vertex="1">
          <mxGeometry x="592" y="390" width="180" height="150" as="geometry" />
        </mxCell>
        <mxCell id="FYp_cTO7IGaWXqHn_5oI-2" value="" style="shape=tableRow;horizontal=0;startSize=0;swimlaneHead=0;swimlaneBody=0;fillColor=none;collapsible=0;dropTarget=0;points=[[0,0.5],[1,0.5]];portConstraint=eastwest;top=0;left=0;right=0;bottom=1;" parent="FYp_cTO7IGaWXqHn_5oI-1" vertex="1">
          <mxGeometry y="30" width="180" height="30" as="geometry" />
        </mxCell>
        <mxCell id="FYp_cTO7IGaWXqHn_5oI-3" value="PK" style="shape=partialRectangle;connectable=0;fillColor=none;top=0;left=0;bottom=0;right=0;fontStyle=1;overflow=hidden;whiteSpace=wrap;html=1;" parent="FYp_cTO7IGaWXqHn_5oI-2" vertex="1">
          <mxGeometry width="30" height="30" as="geometry">
            <mxRectangle width="30" height="30" as="alternateBounds" />
          </mxGeometry>
        </mxCell>
        <mxCell id="FYp_cTO7IGaWXqHn_5oI-4" value="idPersonagem" style="shape=partialRectangle;connectable=0;fillColor=none;top=0;left=0;bottom=0;right=0;align=left;spacingLeft=6;fontStyle=5;overflow=hidden;whiteSpace=wrap;html=1;" parent="FYp_cTO7IGaWXqHn_5oI-2" vertex="1">
          <mxGeometry x="30" width="150" height="30" as="geometry">
            <mxRectangle width="150" height="30" as="alternateBounds" />
          </mxGeometry>
        </mxCell>
        <mxCell id="FYp_cTO7IGaWXqHn_5oI-5" value="" style="shape=tableRow;horizontal=0;startSize=0;swimlaneHead=0;swimlaneBody=0;fillColor=none;collapsible=0;dropTarget=0;points=[[0,0.5],[1,0.5]];portConstraint=eastwest;top=0;left=0;right=0;bottom=0;" parent="FYp_cTO7IGaWXqHn_5oI-1" vertex="1">
          <mxGeometry y="60" width="180" height="30" as="geometry" />
        </mxCell>
        <mxCell id="FYp_cTO7IGaWXqHn_5oI-6" value="" style="shape=partialRectangle;connectable=0;fillColor=none;top=0;left=0;bottom=0;right=0;editable=1;overflow=hidden;whiteSpace=wrap;html=1;" parent="FYp_cTO7IGaWXqHn_5oI-5" vertex="1">
          <mxGeometry width="30" height="30" as="geometry">
            <mxRectangle width="30" height="30" as="alternateBounds" />
          </mxGeometry>
        </mxCell>
        <mxCell id="FYp_cTO7IGaWXqHn_5oI-7" value="nome" style="shape=partialRectangle;connectable=0;fillColor=none;top=0;left=0;bottom=0;right=0;align=left;spacingLeft=6;overflow=hidden;whiteSpace=wrap;html=1;" parent="FYp_cTO7IGaWXqHn_5oI-5" vertex="1">
          <mxGeometry x="30" width="150" height="30" as="geometry">
            <mxRectangle width="150" height="30" as="alternateBounds" />
          </mxGeometry>
        </mxCell>
        <mxCell id="pf99oCX7zV8_EHTEWgkM-32" value="" style="shape=tableRow;horizontal=0;startSize=0;swimlaneHead=0;swimlaneBody=0;fillColor=none;collapsible=0;dropTarget=0;points=[[0,0.5],[1,0.5]];portConstraint=eastwest;top=0;left=0;right=0;bottom=0;" parent="FYp_cTO7IGaWXqHn_5oI-1" vertex="1">
          <mxGeometry y="90" width="180" height="30" as="geometry" />
        </mxCell>
        <mxCell id="pf99oCX7zV8_EHTEWgkM-33" value="" style="shape=partialRectangle;connectable=0;fillColor=none;top=0;left=0;bottom=0;right=0;editable=1;overflow=hidden;whiteSpace=wrap;html=1;" parent="pf99oCX7zV8_EHTEWgkM-32" vertex="1">
          <mxGeometry width="30" height="30" as="geometry">
            <mxRectangle width="30" height="30" as="alternateBounds" />
          </mxGeometry>
        </mxCell>
        <mxCell id="pf99oCX7zV8_EHTEWgkM-34" value="nivel" style="shape=partialRectangle;connectable=0;fillColor=none;top=0;left=0;bottom=0;right=0;align=left;spacingLeft=6;overflow=hidden;whiteSpace=wrap;html=1;" parent="pf99oCX7zV8_EHTEWgkM-32" vertex="1">
          <mxGeometry x="30" width="150" height="30" as="geometry">
            <mxRectangle width="150" height="30" as="alternateBounds" />
          </mxGeometry>
        </mxCell>
        <mxCell id="FYp_cTO7IGaWXqHn_5oI-8" value="" style="shape=tableRow;horizontal=0;startSize=0;swimlaneHead=0;swimlaneBody=0;fillColor=none;collapsible=0;dropTarget=0;points=[[0,0.5],[1,0.5]];portConstraint=eastwest;top=0;left=0;right=0;bottom=0;" parent="FYp_cTO7IGaWXqHn_5oI-1" vertex="1">
          <mxGeometry y="120" width="180" height="30" as="geometry" />
        </mxCell>
        <mxCell id="FYp_cTO7IGaWXqHn_5oI-9" value="" style="shape=partialRectangle;connectable=0;fillColor=none;top=0;left=0;bottom=0;right=0;editable=1;overflow=hidden;whiteSpace=wrap;html=1;" parent="FYp_cTO7IGaWXqHn_5oI-8" vertex="1">
          <mxGeometry width="30" height="30" as="geometry">
            <mxRectangle width="30" height="30" as="alternateBounds" />
          </mxGeometry>
        </mxCell>
        <mxCell id="FYp_cTO7IGaWXqHn_5oI-10" value="perfil" style="shape=partialRectangle;connectable=0;fillColor=none;top=0;left=0;bottom=0;right=0;align=left;spacingLeft=6;overflow=hidden;whiteSpace=wrap;html=1;" parent="FYp_cTO7IGaWXqHn_5oI-8" vertex="1">
          <mxGeometry x="30" width="150" height="30" as="geometry">
            <mxRectangle width="150" height="30" as="alternateBounds" />
          </mxGeometry>
        </mxCell>
        <mxCell id="FYp_cTO7IGaWXqHn_5oI-14" value="Atributos" style="shape=table;startSize=30;container=1;collapsible=1;childLayout=tableLayout;fixedRows=1;rowLines=0;fontStyle=1;align=center;resizeLast=1;html=1;" parent="1" vertex="1">
          <mxGeometry x="1360" y="452" width="180" height="150" as="geometry" />
        </mxCell>
        <mxCell id="FYp_cTO7IGaWXqHn_5oI-15" value="" style="shape=tableRow;horizontal=0;startSize=0;swimlaneHead=0;swimlaneBody=0;fillColor=none;collapsible=0;dropTarget=0;points=[[0,0.5],[1,0.5]];portConstraint=eastwest;top=0;left=0;right=0;bottom=1;" parent="FYp_cTO7IGaWXqHn_5oI-14" vertex="1">
          <mxGeometry y="30" width="180" height="30" as="geometry" />
        </mxCell>
        <mxCell id="FYp_cTO7IGaWXqHn_5oI-16" value="PK" style="shape=partialRectangle;connectable=0;fillColor=none;top=0;left=0;bottom=0;right=0;fontStyle=1;overflow=hidden;whiteSpace=wrap;html=1;" parent="FYp_cTO7IGaWXqHn_5oI-15" vertex="1">
          <mxGeometry width="30" height="30" as="geometry">
            <mxRectangle width="30" height="30" as="alternateBounds" />
          </mxGeometry>
        </mxCell>
        <mxCell id="FYp_cTO7IGaWXqHn_5oI-17" value="idAtributos" style="shape=partialRectangle;connectable=0;fillColor=none;top=0;left=0;bottom=0;right=0;align=left;spacingLeft=6;fontStyle=5;overflow=hidden;whiteSpace=wrap;html=1;" parent="FYp_cTO7IGaWXqHn_5oI-15" vertex="1">
          <mxGeometry x="30" width="150" height="30" as="geometry">
            <mxRectangle width="150" height="30" as="alternateBounds" />
          </mxGeometry>
        </mxCell>
        <mxCell id="FYp_cTO7IGaWXqHn_5oI-18" value="" style="shape=tableRow;horizontal=0;startSize=0;swimlaneHead=0;swimlaneBody=0;fillColor=none;collapsible=0;dropTarget=0;points=[[0,0.5],[1,0.5]];portConstraint=eastwest;top=0;left=0;right=0;bottom=0;" parent="FYp_cTO7IGaWXqHn_5oI-14" vertex="1">
          <mxGeometry y="60" width="180" height="30" as="geometry" />
        </mxCell>
        <mxCell id="FYp_cTO7IGaWXqHn_5oI-19" value="" style="shape=partialRectangle;connectable=0;fillColor=none;top=0;left=0;bottom=0;right=0;editable=1;overflow=hidden;whiteSpace=wrap;html=1;" parent="FYp_cTO7IGaWXqHn_5oI-18" vertex="1">
          <mxGeometry width="30" height="30" as="geometry">
            <mxRectangle width="30" height="30" as="alternateBounds" />
          </mxGeometry>
        </mxCell>
        <mxCell id="FYp_cTO7IGaWXqHn_5oI-20" value="nome" style="shape=partialRectangle;connectable=0;fillColor=none;top=0;left=0;bottom=0;right=0;align=left;spacingLeft=6;overflow=hidden;whiteSpace=wrap;html=1;" parent="FYp_cTO7IGaWXqHn_5oI-18" vertex="1">
          <mxGeometry x="30" width="150" height="30" as="geometry">
            <mxRectangle width="150" height="30" as="alternateBounds" />
          </mxGeometry>
        </mxCell>
        <mxCell id="s61Z74s8tMEtQrdK3it5-4" value="" style="shape=tableRow;horizontal=0;startSize=0;swimlaneHead=0;swimlaneBody=0;fillColor=none;collapsible=0;dropTarget=0;points=[[0,0.5],[1,0.5]];portConstraint=eastwest;top=0;left=0;right=0;bottom=0;" parent="FYp_cTO7IGaWXqHn_5oI-14" vertex="1">
          <mxGeometry y="90" width="180" height="30" as="geometry" />
        </mxCell>
        <mxCell id="s61Z74s8tMEtQrdK3it5-5" value="" style="shape=partialRectangle;connectable=0;fillColor=none;top=0;left=0;bottom=0;right=0;editable=1;overflow=hidden;whiteSpace=wrap;html=1;" parent="s61Z74s8tMEtQrdK3it5-4" vertex="1">
          <mxGeometry width="30" height="30" as="geometry">
            <mxRectangle width="30" height="30" as="alternateBounds" />
          </mxGeometry>
        </mxCell>
        <mxCell id="s61Z74s8tMEtQrdK3it5-6" value="valor" style="shape=partialRectangle;connectable=0;fillColor=none;top=0;left=0;bottom=0;right=0;align=left;spacingLeft=6;overflow=hidden;whiteSpace=wrap;html=1;" parent="s61Z74s8tMEtQrdK3it5-4" vertex="1">
          <mxGeometry x="30" width="150" height="30" as="geometry">
            <mxRectangle width="150" height="30" as="alternateBounds" />
          </mxGeometry>
        </mxCell>
        <mxCell id="s61Z74s8tMEtQrdK3it5-7" value="" style="shape=tableRow;horizontal=0;startSize=0;swimlaneHead=0;swimlaneBody=0;fillColor=none;collapsible=0;dropTarget=0;points=[[0,0.5],[1,0.5]];portConstraint=eastwest;top=0;left=0;right=0;bottom=0;" parent="FYp_cTO7IGaWXqHn_5oI-14" vertex="1">
          <mxGeometry y="120" width="180" height="30" as="geometry" />
        </mxCell>
        <mxCell id="s61Z74s8tMEtQrdK3it5-8" value="" style="shape=partialRectangle;connectable=0;fillColor=none;top=0;left=0;bottom=0;right=0;editable=1;overflow=hidden;whiteSpace=wrap;html=1;" parent="s61Z74s8tMEtQrdK3it5-7" vertex="1">
          <mxGeometry width="30" height="30" as="geometry">
            <mxRectangle width="30" height="30" as="alternateBounds" />
          </mxGeometry>
        </mxCell>
        <mxCell id="s61Z74s8tMEtQrdK3it5-9" value="tipo" style="shape=partialRectangle;connectable=0;fillColor=none;top=0;left=0;bottom=0;right=0;align=left;spacingLeft=6;overflow=hidden;whiteSpace=wrap;html=1;" parent="s61Z74s8tMEtQrdK3it5-7" vertex="1">
          <mxGeometry x="30" width="150" height="30" as="geometry">
            <mxRectangle width="150" height="30" as="alternateBounds" />
          </mxGeometry>
        </mxCell>
        <mxCell id="FYp_cTO7IGaWXqHn_5oI-72" value="&lt;font style=&quot;&quot;&gt;&lt;div style=&quot;&quot;&gt;&lt;div style=&quot;&quot;&gt;&lt;div style=&quot;&quot;&gt;&lt;div style=&quot;&quot;&gt;&lt;div style=&quot;&quot;&gt;&lt;div style=&quot;&quot;&gt;&lt;div&gt;&lt;font style=&quot;font-size: 14px;&quot;&gt;Jogador&amp;nbsp;&lt;/font&gt;&lt;font style=&quot;background-color: initial;&quot; size=&quot;3&quot;&gt;(&lt;/font&gt;&lt;u style=&quot;background-color: initial; font-size: 14px;&quot;&gt;idJogador&lt;/u&gt;&lt;span style=&quot;background-color: initial; font-size: 14px;&quot;&gt;, nomeConta, email, senhaC,&amp;nbsp;&lt;/span&gt;&lt;span style=&quot;font-size: medium; background-color: initial;&quot;&gt;espaÃ§oLivre, capacidade, ouro)&lt;/span&gt;&lt;/div&gt;&lt;div&gt;&lt;font style=&quot;font-size: 14px;&quot;&gt;&lt;br&gt;&lt;/font&gt;&lt;/div&gt;&lt;div&gt;&lt;span style=&quot;font-size: medium;&quot;&gt;Personagem (&amp;nbsp;&lt;/span&gt;&lt;u style=&quot;font-size: medium;&quot;&gt;idPersonagem&lt;/u&gt;&lt;span style=&quot;font-size: medium;&quot;&gt;, idArma, nome, perfil)&lt;/span&gt;&lt;br&gt;&lt;/div&gt;&lt;div&gt;&lt;span style=&quot;font-size: medium;&quot;&gt;&lt;span style=&quot;white-space: pre;&quot;&gt;&#x9;&lt;/span&gt;idArma referencia Arma&lt;br&gt;&lt;/span&gt;&lt;/div&gt;&lt;div&gt;&lt;span style=&quot;font-size: medium;&quot;&gt;&lt;br&gt;&lt;/span&gt;&lt;/div&gt;&lt;div&gt;&lt;font style=&quot;font-size: 14px;&quot;&gt;Login(&amp;nbsp;&lt;u&gt;idLogin,&lt;/u&gt;&amp;nbsp;&lt;u&gt;idJogador&lt;/u&gt;, dataHoraInicial, dataHoraFinal )&lt;/font&gt;&lt;/div&gt;&lt;div&gt;&lt;font style=&quot;font-size: 14px;&quot;&gt;&lt;br&gt;&lt;/font&gt;&lt;/div&gt;&lt;div&gt;&lt;font style=&quot;font-size: 14px;&quot;&gt;&lt;br&gt;&lt;/font&gt;&lt;/div&gt;&lt;div&gt;&lt;font style=&quot;font-size: 14px;&quot;&gt;HistoricoNivelConta(&amp;nbsp;&lt;u&gt;idHNC&lt;/u&gt;, &lt;u&gt;idJogador,&lt;/u&gt; nivel, dataHora )&lt;/font&gt;&lt;/div&gt;&lt;div&gt;&lt;font style=&quot;font-size: 14px;&quot;&gt;&lt;br&gt;&lt;/font&gt;&lt;/div&gt;&lt;div&gt;&lt;font style=&quot;font-size: 14px;&quot;&gt;&lt;br&gt;&lt;/font&gt;&lt;/div&gt;&lt;div&gt;&lt;font style=&quot;font-size: 14px;&quot;&gt;&lt;div style=&quot;font-size: 12px;&quot;&gt;&lt;font size=&quot;3&quot;&gt;Missao (&amp;nbsp;&lt;u&gt;idMissao&lt;/u&gt;, descricao, local, recompensas )&lt;/font&gt;&lt;/div&gt;&lt;div&gt;&lt;font size=&quot;3&quot;&gt;&lt;br&gt;&lt;/font&gt;&lt;/div&gt;&lt;/font&gt;&lt;/div&gt;&lt;div&gt;&lt;font style=&quot;font-size: 14px;&quot;&gt;&lt;span style=&quot;font-size: medium;&quot;&gt;Item (&amp;nbsp;&lt;/span&gt;&lt;u style=&quot;font-size: medium;&quot;&gt;idItem&lt;/u&gt;&lt;span style=&quot;font-size: medium;&quot;&gt;, nome, descricao)&lt;/span&gt;&lt;br&gt;&lt;/font&gt;&lt;/div&gt;&lt;div&gt;&lt;font size=&quot;3&quot;&gt;&lt;br&gt;&lt;/font&gt;&lt;/div&gt;&lt;div&gt;&lt;br&gt;&lt;/div&gt;&lt;div&gt;&lt;font size=&quot;3&quot;&gt;MissoesStatus ( &lt;u&gt;idMissao&lt;/u&gt;,&lt;u&gt; idJogador&lt;/u&gt;, Status)&lt;/font&gt;&lt;/div&gt;&lt;div&gt;&lt;span style=&quot;white-space: pre;&quot;&gt;&#x9;&lt;/span&gt;idMissao referencia Missao&lt;br&gt;&lt;/div&gt;&lt;div&gt;&lt;span style=&quot;white-space: pre;&quot;&gt;&#x9;&lt;/span&gt;idJogador referencia Jogador&lt;br&gt;&lt;/div&gt;&lt;div&gt;&lt;font size=&quot;3&quot;&gt;&lt;br&gt;&lt;/font&gt;&lt;/div&gt;&lt;div&gt;&lt;br&gt;&lt;/div&gt;&lt;div&gt;&lt;font size=&quot;3&quot;&gt;Aquisicao(&lt;u&gt;idPersonagem&lt;/u&gt;, &lt;u&gt;idJogador&lt;/u&gt;, dataHora)&lt;/font&gt;&lt;/div&gt;&lt;div&gt;&lt;span style=&quot;white-space: pre;&quot;&gt;&#x9;&lt;/span&gt;idPersonagem referencia Personagem&lt;br&gt;&lt;/div&gt;&lt;div&gt;&lt;span style=&quot;white-space: pre;&quot;&gt;&#x9;&lt;/span&gt;idJogador referencia Jogador&lt;br&gt;&lt;/div&gt;&lt;div&gt;&lt;font size=&quot;3&quot;&gt;&lt;br&gt;&lt;/font&gt;&lt;/div&gt;&lt;div&gt;&lt;br&gt;&lt;/div&gt;&lt;div&gt;&lt;font size=&quot;3&quot;&gt;ListaItens( &lt;u&gt;idItem&lt;/u&gt;,&amp;nbsp;&lt;/font&gt;&lt;u style=&quot;font-size: medium; background-color: initial;&quot;&gt;idJogador&lt;/u&gt;&lt;span style=&quot;font-size: medium; background-color: initial;&quot;&gt;, quantidade)&lt;/span&gt;&lt;/div&gt;&lt;div&gt;&lt;font size=&quot;3&quot;&gt;&lt;span style=&quot;white-space: pre;&quot;&gt;&#x9;&lt;/span&gt;idItem referencia Item&lt;br&gt;&lt;/font&gt;&lt;/div&gt;&lt;div&gt;&lt;font size=&quot;3&quot;&gt;&lt;span style=&quot;white-space: pre;&quot;&gt;&#x9;&lt;/span&gt;idJogador referencia Jogador&lt;br&gt;&lt;/font&gt;&lt;/div&gt;&lt;div&gt;&lt;font size=&quot;3&quot;&gt;&lt;br&gt;&lt;/font&gt;&lt;/div&gt;&lt;div&gt;&lt;br&gt;&lt;/div&gt;&lt;div&gt;&lt;span style=&quot;background-color: initial; font-size: medium;&quot;&gt;Habilidade ( &lt;/span&gt;&lt;u style=&quot;background-color: initial; font-size: medium;&quot;&gt;idHabilidade&lt;/u&gt;&lt;span style=&quot;background-color: initial; font-size: medium;&quot;&gt;, &lt;/span&gt;&lt;u style=&quot;background-color: initial; font-size: medium;&quot;&gt;idPersonagem&lt;/u&gt;&lt;span style=&quot;background-color: initial; font-size: medium;&quot;&gt;, nome, descricao, custoMagia )&lt;/span&gt;&lt;br&gt;&lt;/div&gt;&lt;div&gt;&lt;span style=&quot;background-color: initial; font-size: medium;&quot;&gt;&lt;br&gt;&lt;/span&gt;&lt;/div&gt;&lt;div&gt;&lt;span style=&quot;background-color: initial; font-size: medium;&quot;&gt;&lt;br&gt;&lt;/span&gt;&lt;/div&gt;&lt;div&gt;&lt;font size=&quot;3&quot;&gt;Materiais ( &lt;u&gt;idItem&lt;/u&gt;, preco, tipo )&lt;/font&gt;&lt;/div&gt;&lt;div&gt;&lt;font size=&quot;3&quot;&gt;&lt;span style=&quot;white-space: pre;&quot;&gt;&#x9;&lt;/span&gt;idItem referencia Item&lt;br&gt;&lt;/font&gt;&lt;/div&gt;&lt;div&gt;&lt;font size=&quot;3&quot;&gt;&lt;br&gt;&lt;/font&gt;&lt;/div&gt;&lt;div&gt;&lt;font size=&quot;3&quot;&gt;Arma (&lt;u&gt;idItem&lt;/u&gt;, tipo, nivel, raridade, passiva )&lt;/font&gt;&lt;/div&gt;&lt;div&gt;&lt;font size=&quot;3&quot;&gt;&lt;span style=&quot;white-space: pre;&quot;&gt;&#x9;&lt;/span&gt;idItem referencia Item&lt;br&gt;&lt;/font&gt;&lt;/div&gt;&lt;div&gt;&lt;font size=&quot;3&quot;&gt;&lt;br&gt;&lt;/font&gt;&lt;/div&gt;&lt;div&gt;&lt;font size=&quot;3&quot;&gt;Atributos ( nome, valor, tipo, idPersonagem, idArma )&lt;/font&gt;&lt;/div&gt;&lt;div&gt;&lt;br&gt;&lt;/div&gt;&lt;div&gt;&lt;font size=&quot;3&quot;&gt;&lt;br&gt;&lt;/font&gt;&lt;/div&gt;&lt;div&gt;&lt;br&gt;&lt;/div&gt;&lt;div&gt;&lt;font size=&quot;3&quot;&gt;&lt;br&gt;&lt;/font&gt;&lt;/div&gt;&lt;div&gt;&lt;font size=&quot;3&quot;&gt;&lt;br&gt;&lt;/font&gt;&lt;/div&gt;&lt;div&gt;&lt;br&gt;&lt;/div&gt;&lt;div&gt;&lt;br&gt;&lt;/div&gt;&lt;div&gt;&lt;br&gt;&lt;/div&gt;&lt;/div&gt;&lt;/div&gt;&lt;/div&gt;&lt;/div&gt;&lt;/div&gt;&lt;/div&gt;&lt;/font&gt;" style="text;html=1;align=left;verticalAlign=middle;resizable=0;points=[];autosize=1;strokeColor=none;fillColor=none;" parent="1" vertex="1">
          <mxGeometry x="-1660" y="145" width="550" height="870" as="geometry" />
        </mxCell>
        <mxCell id="FYp_cTO7IGaWXqHn_5oI-101" value="Item" style="shape=table;startSize=30;container=1;collapsible=1;childLayout=tableLayout;fixedRows=1;rowLines=0;fontStyle=1;align=center;resizeLast=1;html=1;" parent="1" vertex="1">
          <mxGeometry x="-170" y="1470" width="180" height="120" as="geometry" />
        </mxCell>
        <mxCell id="FYp_cTO7IGaWXqHn_5oI-102" value="" style="shape=tableRow;horizontal=0;startSize=0;swimlaneHead=0;swimlaneBody=0;fillColor=none;collapsible=0;dropTarget=0;points=[[0,0.5],[1,0.5]];portConstraint=eastwest;top=0;left=0;right=0;bottom=1;" parent="FYp_cTO7IGaWXqHn_5oI-101" vertex="1">
          <mxGeometry y="30" width="180" height="30" as="geometry" />
        </mxCell>
        <mxCell id="FYp_cTO7IGaWXqHn_5oI-103" value="PK" style="shape=partialRectangle;connectable=0;fillColor=none;top=0;left=0;bottom=0;right=0;fontStyle=1;overflow=hidden;whiteSpace=wrap;html=1;" parent="FYp_cTO7IGaWXqHn_5oI-102" vertex="1">
          <mxGeometry width="30" height="30" as="geometry">
            <mxRectangle width="30" height="30" as="alternateBounds" />
          </mxGeometry>
        </mxCell>
        <mxCell id="FYp_cTO7IGaWXqHn_5oI-104" value="idItem" style="shape=partialRectangle;connectable=0;fillColor=none;top=0;left=0;bottom=0;right=0;align=left;spacingLeft=6;fontStyle=5;overflow=hidden;whiteSpace=wrap;html=1;" parent="FYp_cTO7IGaWXqHn_5oI-102" vertex="1">
          <mxGeometry x="30" width="150" height="30" as="geometry">
            <mxRectangle width="150" height="30" as="alternateBounds" />
          </mxGeometry>
        </mxCell>
        <mxCell id="FYp_cTO7IGaWXqHn_5oI-105" value="" style="shape=tableRow;horizontal=0;startSize=0;swimlaneHead=0;swimlaneBody=0;fillColor=none;collapsible=0;dropTarget=0;points=[[0,0.5],[1,0.5]];portConstraint=eastwest;top=0;left=0;right=0;bottom=0;" parent="FYp_cTO7IGaWXqHn_5oI-101" vertex="1">
          <mxGeometry y="60" width="180" height="30" as="geometry" />
        </mxCell>
        <mxCell id="FYp_cTO7IGaWXqHn_5oI-106" value="" style="shape=partialRectangle;connectable=0;fillColor=none;top=0;left=0;bottom=0;right=0;editable=1;overflow=hidden;whiteSpace=wrap;html=1;" parent="FYp_cTO7IGaWXqHn_5oI-105" vertex="1">
          <mxGeometry width="30" height="30" as="geometry">
            <mxRectangle width="30" height="30" as="alternateBounds" />
          </mxGeometry>
        </mxCell>
        <mxCell id="FYp_cTO7IGaWXqHn_5oI-107" value="nome" style="shape=partialRectangle;connectable=0;fillColor=none;top=0;left=0;bottom=0;right=0;align=left;spacingLeft=6;overflow=hidden;whiteSpace=wrap;html=1;" parent="FYp_cTO7IGaWXqHn_5oI-105" vertex="1">
          <mxGeometry x="30" width="150" height="30" as="geometry">
            <mxRectangle width="150" height="30" as="alternateBounds" />
          </mxGeometry>
        </mxCell>
        <mxCell id="FYp_cTO7IGaWXqHn_5oI-111" value="" style="shape=tableRow;horizontal=0;startSize=0;swimlaneHead=0;swimlaneBody=0;fillColor=none;collapsible=0;dropTarget=0;points=[[0,0.5],[1,0.5]];portConstraint=eastwest;top=0;left=0;right=0;bottom=0;" parent="FYp_cTO7IGaWXqHn_5oI-101" vertex="1">
          <mxGeometry y="90" width="180" height="30" as="geometry" />
        </mxCell>
        <mxCell id="FYp_cTO7IGaWXqHn_5oI-112" value="" style="shape=partialRectangle;connectable=0;fillColor=none;top=0;left=0;bottom=0;right=0;editable=1;overflow=hidden;whiteSpace=wrap;html=1;" parent="FYp_cTO7IGaWXqHn_5oI-111" vertex="1">
          <mxGeometry width="30" height="30" as="geometry">
            <mxRectangle width="30" height="30" as="alternateBounds" />
          </mxGeometry>
        </mxCell>
        <mxCell id="FYp_cTO7IGaWXqHn_5oI-113" value="descricao" style="shape=partialRectangle;connectable=0;fillColor=none;top=0;left=0;bottom=0;right=0;align=left;spacingLeft=6;overflow=hidden;whiteSpace=wrap;html=1;" parent="FYp_cTO7IGaWXqHn_5oI-111" vertex="1">
          <mxGeometry x="30" width="150" height="30" as="geometry">
            <mxRectangle width="150" height="30" as="alternateBounds" />
          </mxGeometry>
        </mxCell>
        <mxCell id="FYp_cTO7IGaWXqHn_5oI-120" value="Habilidade" style="shape=table;startSize=30;container=1;collapsible=1;childLayout=tableLayout;fixedRows=1;rowLines=0;fontStyle=1;align=center;resizeLast=1;html=1;" parent="1" vertex="1">
          <mxGeometry x="1061" y="80" width="180" height="150" as="geometry" />
        </mxCell>
        <mxCell id="FYp_cTO7IGaWXqHn_5oI-121" value="" style="shape=tableRow;horizontal=0;startSize=0;swimlaneHead=0;swimlaneBody=0;fillColor=none;collapsible=0;dropTarget=0;points=[[0,0.5],[1,0.5]];portConstraint=eastwest;top=0;left=0;right=0;bottom=1;" parent="FYp_cTO7IGaWXqHn_5oI-120" vertex="1">
          <mxGeometry y="30" width="180" height="30" as="geometry" />
        </mxCell>
        <mxCell id="FYp_cTO7IGaWXqHn_5oI-122" value="PK" style="shape=partialRectangle;connectable=0;fillColor=none;top=0;left=0;bottom=0;right=0;fontStyle=1;overflow=hidden;whiteSpace=wrap;html=1;" parent="FYp_cTO7IGaWXqHn_5oI-121" vertex="1">
          <mxGeometry width="30" height="30" as="geometry">
            <mxRectangle width="30" height="30" as="alternateBounds" />
          </mxGeometry>
        </mxCell>
        <mxCell id="FYp_cTO7IGaWXqHn_5oI-123" value="idHabilidade" style="shape=partialRectangle;connectable=0;fillColor=none;top=0;left=0;bottom=0;right=0;align=left;spacingLeft=6;fontStyle=5;overflow=hidden;whiteSpace=wrap;html=1;" parent="FYp_cTO7IGaWXqHn_5oI-121" vertex="1">
          <mxGeometry x="30" width="150" height="30" as="geometry">
            <mxRectangle width="150" height="30" as="alternateBounds" />
          </mxGeometry>
        </mxCell>
        <mxCell id="FYp_cTO7IGaWXqHn_5oI-124" value="" style="shape=tableRow;horizontal=0;startSize=0;swimlaneHead=0;swimlaneBody=0;fillColor=none;collapsible=0;dropTarget=0;points=[[0,0.5],[1,0.5]];portConstraint=eastwest;top=0;left=0;right=0;bottom=0;" parent="FYp_cTO7IGaWXqHn_5oI-120" vertex="1">
          <mxGeometry y="60" width="180" height="30" as="geometry" />
        </mxCell>
        <mxCell id="FYp_cTO7IGaWXqHn_5oI-125" value="" style="shape=partialRectangle;connectable=0;fillColor=none;top=0;left=0;bottom=0;right=0;editable=1;overflow=hidden;whiteSpace=wrap;html=1;" parent="FYp_cTO7IGaWXqHn_5oI-124" vertex="1">
          <mxGeometry width="30" height="30" as="geometry">
            <mxRectangle width="30" height="30" as="alternateBounds" />
          </mxGeometry>
        </mxCell>
        <mxCell id="FYp_cTO7IGaWXqHn_5oI-126" value="nome" style="shape=partialRectangle;connectable=0;fillColor=none;top=0;left=0;bottom=0;right=0;align=left;spacingLeft=6;overflow=hidden;whiteSpace=wrap;html=1;" parent="FYp_cTO7IGaWXqHn_5oI-124" vertex="1">
          <mxGeometry x="30" width="150" height="30" as="geometry">
            <mxRectangle width="150" height="30" as="alternateBounds" />
          </mxGeometry>
        </mxCell>
        <mxCell id="FYp_cTO7IGaWXqHn_5oI-130" value="" style="shape=tableRow;horizontal=0;startSize=0;swimlaneHead=0;swimlaneBody=0;fillColor=none;collapsible=0;dropTarget=0;points=[[0,0.5],[1,0.5]];portConstraint=eastwest;top=0;left=0;right=0;bottom=0;" parent="FYp_cTO7IGaWXqHn_5oI-120" vertex="1">
          <mxGeometry y="90" width="180" height="30" as="geometry" />
        </mxCell>
        <mxCell id="FYp_cTO7IGaWXqHn_5oI-131" value="" style="shape=partialRectangle;connectable=0;fillColor=none;top=0;left=0;bottom=0;right=0;editable=1;overflow=hidden;whiteSpace=wrap;html=1;" parent="FYp_cTO7IGaWXqHn_5oI-130" vertex="1">
          <mxGeometry width="30" height="30" as="geometry">
            <mxRectangle width="30" height="30" as="alternateBounds" />
          </mxGeometry>
        </mxCell>
        <mxCell id="FYp_cTO7IGaWXqHn_5oI-132" value="descricao" style="shape=partialRectangle;connectable=0;fillColor=none;top=0;left=0;bottom=0;right=0;align=left;spacingLeft=6;overflow=hidden;whiteSpace=wrap;html=1;" parent="FYp_cTO7IGaWXqHn_5oI-130" vertex="1">
          <mxGeometry x="30" width="150" height="30" as="geometry">
            <mxRectangle width="150" height="30" as="alternateBounds" />
          </mxGeometry>
        </mxCell>
        <mxCell id="FYp_cTO7IGaWXqHn_5oI-136" value="" style="shape=tableRow;horizontal=0;startSize=0;swimlaneHead=0;swimlaneBody=0;fillColor=none;collapsible=0;dropTarget=0;points=[[0,0.5],[1,0.5]];portConstraint=eastwest;top=0;left=0;right=0;bottom=0;" parent="FYp_cTO7IGaWXqHn_5oI-120" vertex="1">
          <mxGeometry y="120" width="180" height="30" as="geometry" />
        </mxCell>
        <mxCell id="FYp_cTO7IGaWXqHn_5oI-137" value="" style="shape=partialRectangle;connectable=0;fillColor=none;top=0;left=0;bottom=0;right=0;editable=1;overflow=hidden;whiteSpace=wrap;html=1;" parent="FYp_cTO7IGaWXqHn_5oI-136" vertex="1">
          <mxGeometry width="30" height="30" as="geometry">
            <mxRectangle width="30" height="30" as="alternateBounds" />
          </mxGeometry>
        </mxCell>
        <mxCell id="FYp_cTO7IGaWXqHn_5oI-138" value="custoMagia" style="shape=partialRectangle;connectable=0;fillColor=none;top=0;left=0;bottom=0;right=0;align=left;spacingLeft=6;overflow=hidden;whiteSpace=wrap;html=1;" parent="FYp_cTO7IGaWXqHn_5oI-136" vertex="1">
          <mxGeometry x="30" width="150" height="30" as="geometry">
            <mxRectangle width="150" height="30" as="alternateBounds" />
          </mxGeometry>
        </mxCell>
        <mxCell id="FYp_cTO7IGaWXqHn_5oI-139" value="Jogador" style="shape=table;startSize=30;container=1;collapsible=1;childLayout=tableLayout;fixedRows=1;rowLines=0;fontStyle=0;align=center;resizeLast=1;html=1;" parent="1" vertex="1">
          <mxGeometry x="-58" y="410" width="180" height="210" as="geometry" />
        </mxCell>
        <mxCell id="FYp_cTO7IGaWXqHn_5oI-140" value="" style="shape=tableRow;horizontal=0;startSize=0;swimlaneHead=0;swimlaneBody=0;fillColor=none;collapsible=0;dropTarget=0;points=[[0,0.5],[1,0.5]];portConstraint=eastwest;top=0;left=0;right=0;bottom=1;" parent="FYp_cTO7IGaWXqHn_5oI-139" vertex="1">
          <mxGeometry y="30" width="180" height="30" as="geometry" />
        </mxCell>
        <mxCell id="FYp_cTO7IGaWXqHn_5oI-141" value="PK" style="shape=partialRectangle;connectable=0;fillColor=none;top=0;left=0;bottom=0;right=0;fontStyle=1;overflow=hidden;whiteSpace=wrap;html=1;" parent="FYp_cTO7IGaWXqHn_5oI-140" vertex="1">
          <mxGeometry width="30" height="30" as="geometry">
            <mxRectangle width="30" height="30" as="alternateBounds" />
          </mxGeometry>
        </mxCell>
        <mxCell id="FYp_cTO7IGaWXqHn_5oI-142" value="idJogador" style="shape=partialRectangle;connectable=0;fillColor=none;top=0;left=0;bottom=0;right=0;align=left;spacingLeft=6;fontStyle=5;overflow=hidden;whiteSpace=wrap;html=1;" parent="FYp_cTO7IGaWXqHn_5oI-140" vertex="1">
          <mxGeometry x="30" width="150" height="30" as="geometry">
            <mxRectangle width="150" height="30" as="alternateBounds" />
          </mxGeometry>
        </mxCell>
        <mxCell id="FYp_cTO7IGaWXqHn_5oI-143" value="" style="shape=tableRow;horizontal=0;startSize=0;swimlaneHead=0;swimlaneBody=0;fillColor=none;collapsible=0;dropTarget=0;points=[[0,0.5],[1,0.5]];portConstraint=eastwest;top=0;left=0;right=0;bottom=0;" parent="FYp_cTO7IGaWXqHn_5oI-139" vertex="1">
          <mxGeometry y="60" width="180" height="30" as="geometry" />
        </mxCell>
        <mxCell id="FYp_cTO7IGaWXqHn_5oI-144" value="" style="shape=partialRectangle;connectable=0;fillColor=none;top=0;left=0;bottom=0;right=0;editable=1;overflow=hidden;whiteSpace=wrap;html=1;" parent="FYp_cTO7IGaWXqHn_5oI-143" vertex="1">
          <mxGeometry width="30" height="30" as="geometry">
            <mxRectangle width="30" height="30" as="alternateBounds" />
          </mxGeometry>
        </mxCell>
        <mxCell id="FYp_cTO7IGaWXqHn_5oI-145" value="nome" style="shape=partialRectangle;connectable=0;fillColor=none;top=0;left=0;bottom=0;right=0;align=left;spacingLeft=6;overflow=hidden;whiteSpace=wrap;html=1;" parent="FYp_cTO7IGaWXqHn_5oI-143" vertex="1">
          <mxGeometry x="30" width="150" height="30" as="geometry">
            <mxRectangle width="150" height="30" as="alternateBounds" />
          </mxGeometry>
        </mxCell>
        <mxCell id="FYp_cTO7IGaWXqHn_5oI-146" value="" style="shape=tableRow;horizontal=0;startSize=0;swimlaneHead=0;swimlaneBody=0;fillColor=none;collapsible=0;dropTarget=0;points=[[0,0.5],[1,0.5]];portConstraint=eastwest;top=0;left=0;right=0;bottom=0;" parent="FYp_cTO7IGaWXqHn_5oI-139" vertex="1">
          <mxGeometry y="90" width="180" height="30" as="geometry" />
        </mxCell>
        <mxCell id="FYp_cTO7IGaWXqHn_5oI-147" value="" style="shape=partialRectangle;connectable=0;fillColor=none;top=0;left=0;bottom=0;right=0;editable=1;overflow=hidden;whiteSpace=wrap;html=1;" parent="FYp_cTO7IGaWXqHn_5oI-146" vertex="1">
          <mxGeometry width="30" height="30" as="geometry">
            <mxRectangle width="30" height="30" as="alternateBounds" />
          </mxGeometry>
        </mxCell>
        <mxCell id="FYp_cTO7IGaWXqHn_5oI-148" value="email" style="shape=partialRectangle;connectable=0;fillColor=none;top=0;left=0;bottom=0;right=0;align=left;spacingLeft=6;overflow=hidden;whiteSpace=wrap;html=1;" parent="FYp_cTO7IGaWXqHn_5oI-146" vertex="1">
          <mxGeometry x="30" width="150" height="30" as="geometry">
            <mxRectangle width="150" height="30" as="alternateBounds" />
          </mxGeometry>
        </mxCell>
        <mxCell id="FYp_cTO7IGaWXqHn_5oI-149" value="" style="shape=tableRow;horizontal=0;startSize=0;swimlaneHead=0;swimlaneBody=0;fillColor=none;collapsible=0;dropTarget=0;points=[[0,0.5],[1,0.5]];portConstraint=eastwest;top=0;left=0;right=0;bottom=0;" parent="FYp_cTO7IGaWXqHn_5oI-139" vertex="1">
          <mxGeometry y="120" width="180" height="30" as="geometry" />
        </mxCell>
        <mxCell id="FYp_cTO7IGaWXqHn_5oI-150" value="" style="shape=partialRectangle;connectable=0;fillColor=none;top=0;left=0;bottom=0;right=0;editable=1;overflow=hidden;whiteSpace=wrap;html=1;" parent="FYp_cTO7IGaWXqHn_5oI-149" vertex="1">
          <mxGeometry width="30" height="30" as="geometry">
            <mxRectangle width="30" height="30" as="alternateBounds" />
          </mxGeometry>
        </mxCell>
        <mxCell id="FYp_cTO7IGaWXqHn_5oI-151" value="senhaC" style="shape=partialRectangle;connectable=0;fillColor=none;top=0;left=0;bottom=0;right=0;align=left;spacingLeft=6;overflow=hidden;whiteSpace=wrap;html=1;" parent="FYp_cTO7IGaWXqHn_5oI-149" vertex="1">
          <mxGeometry x="30" width="150" height="30" as="geometry">
            <mxRectangle width="150" height="30" as="alternateBounds" />
          </mxGeometry>
        </mxCell>
        <mxCell id="pf99oCX7zV8_EHTEWgkM-21" value="" style="shape=tableRow;horizontal=0;startSize=0;swimlaneHead=0;swimlaneBody=0;fillColor=none;collapsible=0;dropTarget=0;points=[[0,0.5],[1,0.5]];portConstraint=eastwest;top=0;left=0;right=0;bottom=0;" parent="FYp_cTO7IGaWXqHn_5oI-139" vertex="1">
          <mxGeometry y="150" width="180" height="30" as="geometry" />
        </mxCell>
        <mxCell id="pf99oCX7zV8_EHTEWgkM-22" value="" style="shape=partialRectangle;connectable=0;fillColor=none;top=0;left=0;bottom=0;right=0;editable=1;overflow=hidden;whiteSpace=wrap;html=1;" parent="pf99oCX7zV8_EHTEWgkM-21" vertex="1">
          <mxGeometry width="30" height="30" as="geometry">
            <mxRectangle width="30" height="30" as="alternateBounds" />
          </mxGeometry>
        </mxCell>
        <mxCell id="pf99oCX7zV8_EHTEWgkM-23" value="ouro" style="shape=partialRectangle;connectable=0;fillColor=none;top=0;left=0;bottom=0;right=0;align=left;spacingLeft=6;overflow=hidden;whiteSpace=wrap;html=1;" parent="pf99oCX7zV8_EHTEWgkM-21" vertex="1">
          <mxGeometry x="30" width="150" height="30" as="geometry">
            <mxRectangle width="150" height="30" as="alternateBounds" />
          </mxGeometry>
        </mxCell>
        <mxCell id="pf99oCX7zV8_EHTEWgkM-24" value="" style="shape=tableRow;horizontal=0;startSize=0;swimlaneHead=0;swimlaneBody=0;fillColor=none;collapsible=0;dropTarget=0;points=[[0,0.5],[1,0.5]];portConstraint=eastwest;top=0;left=0;right=0;bottom=0;" parent="FYp_cTO7IGaWXqHn_5oI-139" vertex="1">
          <mxGeometry y="180" width="180" height="30" as="geometry" />
        </mxCell>
        <mxCell id="pf99oCX7zV8_EHTEWgkM-25" value="" style="shape=partialRectangle;connectable=0;fillColor=none;top=0;left=0;bottom=0;right=0;editable=1;overflow=hidden;whiteSpace=wrap;html=1;" parent="pf99oCX7zV8_EHTEWgkM-24" vertex="1">
          <mxGeometry width="30" height="30" as="geometry">
            <mxRectangle width="30" height="30" as="alternateBounds" />
          </mxGeometry>
        </mxCell>
        <mxCell id="pf99oCX7zV8_EHTEWgkM-26" value="capacidade" style="shape=partialRectangle;connectable=0;fillColor=none;top=0;left=0;bottom=0;right=0;align=left;spacingLeft=6;overflow=hidden;whiteSpace=wrap;html=1;" parent="pf99oCX7zV8_EHTEWgkM-24" vertex="1">
          <mxGeometry x="30" width="150" height="30" as="geometry">
            <mxRectangle width="150" height="30" as="alternateBounds" />
          </mxGeometry>
        </mxCell>
        <mxCell id="FYp_cTO7IGaWXqHn_5oI-158" value="Login" style="shape=table;startSize=30;container=1;collapsible=1;childLayout=tableLayout;fixedRows=1;rowLines=0;fontStyle=1;align=center;resizeLast=1;html=1;" parent="1" vertex="1">
          <mxGeometry x="-747" y="250" width="180" height="120" as="geometry" />
        </mxCell>
        <mxCell id="FYp_cTO7IGaWXqHn_5oI-159" value="" style="shape=tableRow;horizontal=0;startSize=0;swimlaneHead=0;swimlaneBody=0;fillColor=none;collapsible=0;dropTarget=0;points=[[0,0.5],[1,0.5]];portConstraint=eastwest;top=0;left=0;right=0;bottom=1;" parent="FYp_cTO7IGaWXqHn_5oI-158" vertex="1">
          <mxGeometry y="30" width="180" height="30" as="geometry" />
        </mxCell>
        <mxCell id="FYp_cTO7IGaWXqHn_5oI-160" value="PK" style="shape=partialRectangle;connectable=0;fillColor=none;top=0;left=0;bottom=0;right=0;fontStyle=1;overflow=hidden;whiteSpace=wrap;html=1;" parent="FYp_cTO7IGaWXqHn_5oI-159" vertex="1">
          <mxGeometry width="30" height="30" as="geometry">
            <mxRectangle width="30" height="30" as="alternateBounds" />
          </mxGeometry>
        </mxCell>
        <mxCell id="FYp_cTO7IGaWXqHn_5oI-161" value="idLogin" style="shape=partialRectangle;connectable=0;fillColor=none;top=0;left=0;bottom=0;right=0;align=left;spacingLeft=6;fontStyle=5;overflow=hidden;whiteSpace=wrap;html=1;" parent="FYp_cTO7IGaWXqHn_5oI-159" vertex="1">
          <mxGeometry x="30" width="150" height="30" as="geometry">
            <mxRectangle width="150" height="30" as="alternateBounds" />
          </mxGeometry>
        </mxCell>
        <mxCell id="FYp_cTO7IGaWXqHn_5oI-162" value="" style="shape=tableRow;horizontal=0;startSize=0;swimlaneHead=0;swimlaneBody=0;fillColor=none;collapsible=0;dropTarget=0;points=[[0,0.5],[1,0.5]];portConstraint=eastwest;top=0;left=0;right=0;bottom=0;" parent="FYp_cTO7IGaWXqHn_5oI-158" vertex="1">
          <mxGeometry y="60" width="180" height="30" as="geometry" />
        </mxCell>
        <mxCell id="FYp_cTO7IGaWXqHn_5oI-163" value="" style="shape=partialRectangle;connectable=0;fillColor=none;top=0;left=0;bottom=0;right=0;editable=1;overflow=hidden;whiteSpace=wrap;html=1;" parent="FYp_cTO7IGaWXqHn_5oI-162" vertex="1">
          <mxGeometry width="30" height="30" as="geometry">
            <mxRectangle width="30" height="30" as="alternateBounds" />
          </mxGeometry>
        </mxCell>
        <mxCell id="FYp_cTO7IGaWXqHn_5oI-164" value="dataHoraInicial" style="shape=partialRectangle;connectable=0;fillColor=none;top=0;left=0;bottom=0;right=0;align=left;spacingLeft=6;overflow=hidden;whiteSpace=wrap;html=1;" parent="FYp_cTO7IGaWXqHn_5oI-162" vertex="1">
          <mxGeometry x="30" width="150" height="30" as="geometry">
            <mxRectangle width="150" height="30" as="alternateBounds" />
          </mxGeometry>
        </mxCell>
        <mxCell id="FYp_cTO7IGaWXqHn_5oI-165" value="" style="shape=tableRow;horizontal=0;startSize=0;swimlaneHead=0;swimlaneBody=0;fillColor=none;collapsible=0;dropTarget=0;points=[[0,0.5],[1,0.5]];portConstraint=eastwest;top=0;left=0;right=0;bottom=0;" parent="FYp_cTO7IGaWXqHn_5oI-158" vertex="1">
          <mxGeometry y="90" width="180" height="30" as="geometry" />
        </mxCell>
        <mxCell id="FYp_cTO7IGaWXqHn_5oI-166" value="" style="shape=partialRectangle;connectable=0;fillColor=none;top=0;left=0;bottom=0;right=0;editable=1;overflow=hidden;whiteSpace=wrap;html=1;" parent="FYp_cTO7IGaWXqHn_5oI-165" vertex="1">
          <mxGeometry width="30" height="30" as="geometry">
            <mxRectangle width="30" height="30" as="alternateBounds" />
          </mxGeometry>
        </mxCell>
        <mxCell id="FYp_cTO7IGaWXqHn_5oI-167" value="dataHoraFinal" style="shape=partialRectangle;connectable=0;fillColor=none;top=0;left=0;bottom=0;right=0;align=left;spacingLeft=6;overflow=hidden;whiteSpace=wrap;html=1;" parent="FYp_cTO7IGaWXqHn_5oI-165" vertex="1">
          <mxGeometry x="30" width="150" height="30" as="geometry">
            <mxRectangle width="150" height="30" as="alternateBounds" />
          </mxGeometry>
        </mxCell>
        <mxCell id="FYp_cTO7IGaWXqHn_5oI-177" style="edgeStyle=orthogonalEdgeStyle;rounded=0;orthogonalLoop=1;jettySize=auto;html=1;exitX=0;exitY=0.5;exitDx=0;exitDy=0;" parent="1" source="FYp_cTO7IGaWXqHn_5oI-175" target="FYp_cTO7IGaWXqHn_5oI-162" edge="1">
          <mxGeometry relative="1" as="geometry">
            <Array as="points">
              <mxPoint x="-520" y="310" />
              <mxPoint x="-520" y="310" />
            </Array>
          </mxGeometry>
        </mxCell>
        <mxCell id="FYp_cTO7IGaWXqHn_5oI-180" value="( 1, N )" style="edgeLabel;html=1;align=center;verticalAlign=middle;resizable=0;points=[];" parent="FYp_cTO7IGaWXqHn_5oI-177" vertex="1" connectable="0">
          <mxGeometry x="-0.1959" y="-1" relative="1" as="geometry">
            <mxPoint as="offset" />
          </mxGeometry>
        </mxCell>
        <mxCell id="FYp_cTO7IGaWXqHn_5oI-276" style="edgeStyle=orthogonalEdgeStyle;rounded=0;orthogonalLoop=1;jettySize=auto;html=1;entryX=0.25;entryY=0;entryDx=0;entryDy=0;" parent="1" source="FYp_cTO7IGaWXqHn_5oI-175" target="FYp_cTO7IGaWXqHn_5oI-139" edge="1">
          <mxGeometry relative="1" as="geometry" />
        </mxCell>
        <mxCell id="FYp_cTO7IGaWXqHn_5oI-277" value="( 1, 1 )" style="edgeLabel;html=1;align=center;verticalAlign=middle;resizable=0;points=[];" parent="FYp_cTO7IGaWXqHn_5oI-276" vertex="1" connectable="0">
          <mxGeometry x="-0.2541" y="-1" relative="1" as="geometry">
            <mxPoint as="offset" />
          </mxGeometry>
        </mxCell>
        <mxCell id="FYp_cTO7IGaWXqHn_5oI-175" value="Login/Jogador" style="shape=rhombus;perimeter=rhombusPerimeter;whiteSpace=wrap;html=1;align=center;" parent="1" vertex="1">
          <mxGeometry x="-400" y="255" width="170" height="110" as="geometry" />
        </mxCell>
        <mxCell id="FYp_cTO7IGaWXqHn_5oI-184" style="edgeStyle=orthogonalEdgeStyle;rounded=0;orthogonalLoop=1;jettySize=auto;html=1;" parent="1" edge="1">
          <mxGeometry relative="1" as="geometry">
            <mxPoint x="592" y="494.5" as="targetPoint" />
            <mxPoint x="452" y="494.5" as="sourcePoint" />
          </mxGeometry>
        </mxCell>
        <mxCell id="FYp_cTO7IGaWXqHn_5oI-186" value="( 1, N )" style="edgeLabel;html=1;align=center;verticalAlign=middle;resizable=0;points=[];" parent="FYp_cTO7IGaWXqHn_5oI-184" vertex="1" connectable="0">
          <mxGeometry x="0.0885" y="-5" relative="1" as="geometry">
            <mxPoint x="-18" y="-4" as="offset" />
          </mxGeometry>
        </mxCell>
        <mxCell id="FYp_cTO7IGaWXqHn_5oI-182" value="Aquisicao" style="shape=rhombus;perimeter=rhombusPerimeter;whiteSpace=wrap;html=1;align=center;" parent="1" vertex="1">
          <mxGeometry x="280" y="440" width="170" height="110" as="geometry" />
        </mxCell>
        <mxCell id="FYp_cTO7IGaWXqHn_5oI-183" style="edgeStyle=orthogonalEdgeStyle;rounded=0;orthogonalLoop=1;jettySize=auto;html=1;entryX=1.006;entryY=0.833;entryDx=0;entryDy=0;entryPerimeter=0;" parent="1" source="FYp_cTO7IGaWXqHn_5oI-182" target="FYp_cTO7IGaWXqHn_5oI-143" edge="1">
          <mxGeometry relative="1" as="geometry" />
        </mxCell>
        <mxCell id="FYp_cTO7IGaWXqHn_5oI-185" value="( 1, N )" style="edgeLabel;html=1;align=center;verticalAlign=middle;resizable=0;points=[];" parent="FYp_cTO7IGaWXqHn_5oI-183" vertex="1" connectable="0">
          <mxGeometry x="0.0197" y="2" relative="1" as="geometry">
            <mxPoint as="offset" />
          </mxGeometry>
        </mxCell>
        <mxCell id="FYp_cTO7IGaWXqHn_5oI-230" style="edgeStyle=orthogonalEdgeStyle;rounded=0;orthogonalLoop=1;jettySize=auto;html=1;" parent="1" source="FYp_cTO7IGaWXqHn_5oI-214" target="FYp_cTO7IGaWXqHn_5oI-216" edge="1">
          <mxGeometry relative="1" as="geometry" />
        </mxCell>
        <mxCell id="FYp_cTO7IGaWXqHn_5oI-232" value="( 1, N )" style="edgeLabel;html=1;align=center;verticalAlign=middle;resizable=0;points=[];" parent="FYp_cTO7IGaWXqHn_5oI-230" vertex="1" connectable="0">
          <mxGeometry x="-0.033" y="-2" relative="1" as="geometry">
            <mxPoint as="offset" />
          </mxGeometry>
        </mxCell>
        <mxCell id="FYp_cTO7IGaWXqHn_5oI-252" style="edgeStyle=orthogonalEdgeStyle;rounded=0;orthogonalLoop=1;jettySize=auto;html=1;entryX=0;entryY=0.5;entryDx=0;entryDy=0;" parent="1" source="FYp_cTO7IGaWXqHn_5oI-214" target="FYp_cTO7IGaWXqHn_5oI-149" edge="1">
          <mxGeometry relative="1" as="geometry" />
        </mxCell>
        <mxCell id="FYp_cTO7IGaWXqHn_5oI-253" value="( 1, 1 )" style="edgeLabel;html=1;align=center;verticalAlign=middle;resizable=0;points=[];" parent="FYp_cTO7IGaWXqHn_5oI-252" vertex="1" connectable="0">
          <mxGeometry x="-0.001" y="-1" relative="1" as="geometry">
            <mxPoint as="offset" />
          </mxGeometry>
        </mxCell>
        <mxCell id="FYp_cTO7IGaWXqHn_5oI-214" value="NivelContaHistorico" style="shape=rhombus;perimeter=rhombusPerimeter;whiteSpace=wrap;html=1;align=center;" parent="1" vertex="1">
          <mxGeometry x="-403.06" y="490" width="170" height="110" as="geometry" />
        </mxCell>
        <mxCell id="FYp_cTO7IGaWXqHn_5oI-215" value="HistoricoNivelConta" style="shape=table;startSize=30;container=1;collapsible=1;childLayout=tableLayout;fixedRows=1;rowLines=0;fontStyle=1;align=center;resizeLast=1;html=1;" parent="1" vertex="1">
          <mxGeometry x="-750.06" y="500" width="180" height="120" as="geometry" />
        </mxCell>
        <mxCell id="FYp_cTO7IGaWXqHn_5oI-216" value="" style="shape=tableRow;horizontal=0;startSize=0;swimlaneHead=0;swimlaneBody=0;fillColor=none;collapsible=0;dropTarget=0;points=[[0,0.5],[1,0.5]];portConstraint=eastwest;top=0;left=0;right=0;bottom=1;" parent="FYp_cTO7IGaWXqHn_5oI-215" vertex="1">
          <mxGeometry y="30" width="180" height="30" as="geometry" />
        </mxCell>
        <mxCell id="FYp_cTO7IGaWXqHn_5oI-217" value="PK" style="shape=partialRectangle;connectable=0;fillColor=none;top=0;left=0;bottom=0;right=0;fontStyle=1;overflow=hidden;whiteSpace=wrap;html=1;" parent="FYp_cTO7IGaWXqHn_5oI-216" vertex="1">
          <mxGeometry width="30" height="30" as="geometry">
            <mxRectangle width="30" height="30" as="alternateBounds" />
          </mxGeometry>
        </mxCell>
        <mxCell id="FYp_cTO7IGaWXqHn_5oI-218" value="idHNC" style="shape=partialRectangle;connectable=0;fillColor=none;top=0;left=0;bottom=0;right=0;align=left;spacingLeft=6;fontStyle=5;overflow=hidden;whiteSpace=wrap;html=1;" parent="FYp_cTO7IGaWXqHn_5oI-216" vertex="1">
          <mxGeometry x="30" width="150" height="30" as="geometry">
            <mxRectangle width="150" height="30" as="alternateBounds" />
          </mxGeometry>
        </mxCell>
        <mxCell id="FYp_cTO7IGaWXqHn_5oI-219" value="" style="shape=tableRow;horizontal=0;startSize=0;swimlaneHead=0;swimlaneBody=0;fillColor=none;collapsible=0;dropTarget=0;points=[[0,0.5],[1,0.5]];portConstraint=eastwest;top=0;left=0;right=0;bottom=0;" parent="FYp_cTO7IGaWXqHn_5oI-215" vertex="1">
          <mxGeometry y="60" width="180" height="30" as="geometry" />
        </mxCell>
        <mxCell id="FYp_cTO7IGaWXqHn_5oI-220" value="" style="shape=partialRectangle;connectable=0;fillColor=none;top=0;left=0;bottom=0;right=0;editable=1;overflow=hidden;whiteSpace=wrap;html=1;" parent="FYp_cTO7IGaWXqHn_5oI-219" vertex="1">
          <mxGeometry width="30" height="30" as="geometry">
            <mxRectangle width="30" height="30" as="alternateBounds" />
          </mxGeometry>
        </mxCell>
        <mxCell id="FYp_cTO7IGaWXqHn_5oI-221" value="nivel" style="shape=partialRectangle;connectable=0;fillColor=none;top=0;left=0;bottom=0;right=0;align=left;spacingLeft=6;overflow=hidden;whiteSpace=wrap;html=1;" parent="FYp_cTO7IGaWXqHn_5oI-219" vertex="1">
          <mxGeometry x="30" width="150" height="30" as="geometry">
            <mxRectangle width="150" height="30" as="alternateBounds" />
          </mxGeometry>
        </mxCell>
        <mxCell id="FYp_cTO7IGaWXqHn_5oI-222" value="" style="shape=tableRow;horizontal=0;startSize=0;swimlaneHead=0;swimlaneBody=0;fillColor=none;collapsible=0;dropTarget=0;points=[[0,0.5],[1,0.5]];portConstraint=eastwest;top=0;left=0;right=0;bottom=0;" parent="FYp_cTO7IGaWXqHn_5oI-215" vertex="1">
          <mxGeometry y="90" width="180" height="30" as="geometry" />
        </mxCell>
        <mxCell id="FYp_cTO7IGaWXqHn_5oI-223" value="" style="shape=partialRectangle;connectable=0;fillColor=none;top=0;left=0;bottom=0;right=0;editable=1;overflow=hidden;whiteSpace=wrap;html=1;" parent="FYp_cTO7IGaWXqHn_5oI-222" vertex="1">
          <mxGeometry width="30" height="30" as="geometry">
            <mxRectangle width="30" height="30" as="alternateBounds" />
          </mxGeometry>
        </mxCell>
        <mxCell id="FYp_cTO7IGaWXqHn_5oI-224" value="dataHora" style="shape=partialRectangle;connectable=0;fillColor=none;top=0;left=0;bottom=0;right=0;align=left;spacingLeft=6;overflow=hidden;whiteSpace=wrap;html=1;" parent="FYp_cTO7IGaWXqHn_5oI-222" vertex="1">
          <mxGeometry x="30" width="150" height="30" as="geometry">
            <mxRectangle width="150" height="30" as="alternateBounds" />
          </mxGeometry>
        </mxCell>
        <mxCell id="FYp_cTO7IGaWXqHn_5oI-250" style="edgeStyle=orthogonalEdgeStyle;rounded=0;orthogonalLoop=1;jettySize=auto;html=1;entryX=1;entryY=0.5;entryDx=0;entryDy=0;" parent="1" source="FYp_cTO7IGaWXqHn_5oI-249" target="FYp_cTO7IGaWXqHn_5oI-8" edge="1">
          <mxGeometry relative="1" as="geometry" />
        </mxCell>
        <mxCell id="PvOuP6VdFDOq8xeP94VC-5" value="(1,1)" style="edgeLabel;html=1;align=center;verticalAlign=middle;resizable=0;points=[];" parent="FYp_cTO7IGaWXqHn_5oI-250" vertex="1" connectable="0">
          <mxGeometry x="-0.3054" y="-1" relative="1" as="geometry">
            <mxPoint as="offset" />
          </mxGeometry>
        </mxCell>
        <mxCell id="FYp_cTO7IGaWXqHn_5oI-251" style="edgeStyle=orthogonalEdgeStyle;rounded=0;orthogonalLoop=1;jettySize=auto;html=1;exitX=1;exitY=0.5;exitDx=0;exitDy=0;" parent="1" source="FYp_cTO7IGaWXqHn_5oI-249" edge="1">
          <mxGeometry relative="1" as="geometry">
            <mxPoint x="1360" y="495.44444444444434" as="targetPoint" />
          </mxGeometry>
        </mxCell>
        <mxCell id="s61Z74s8tMEtQrdK3it5-3" value="(0, N)" style="edgeLabel;html=1;align=center;verticalAlign=middle;resizable=0;points=[];" parent="FYp_cTO7IGaWXqHn_5oI-251" vertex="1" connectable="0">
          <mxGeometry x="-0.1181" y="1" relative="1" as="geometry">
            <mxPoint as="offset" />
          </mxGeometry>
        </mxCell>
        <mxCell id="FYp_cTO7IGaWXqHn_5oI-249" value="Status" style="shape=rhombus;perimeter=rhombusPerimeter;whiteSpace=wrap;html=1;align=center;" parent="1" vertex="1">
          <mxGeometry x="980" y="440" width="170" height="110" as="geometry" />
        </mxCell>
        <mxCell id="FYp_cTO7IGaWXqHn_5oI-254" value="Missao" style="shape=table;startSize=30;container=1;collapsible=1;childLayout=tableLayout;fixedRows=1;rowLines=0;fontStyle=1;align=center;resizeLast=1;html=1;" parent="1" vertex="1">
          <mxGeometry x="-520" y="676" width="180" height="150" as="geometry" />
        </mxCell>
        <mxCell id="FYp_cTO7IGaWXqHn_5oI-255" value="" style="shape=tableRow;horizontal=0;startSize=0;swimlaneHead=0;swimlaneBody=0;fillColor=none;collapsible=0;dropTarget=0;points=[[0,0.5],[1,0.5]];portConstraint=eastwest;top=0;left=0;right=0;bottom=1;" parent="FYp_cTO7IGaWXqHn_5oI-254" vertex="1">
          <mxGeometry y="30" width="180" height="30" as="geometry" />
        </mxCell>
        <mxCell id="FYp_cTO7IGaWXqHn_5oI-256" value="PK" style="shape=partialRectangle;connectable=0;fillColor=none;top=0;left=0;bottom=0;right=0;fontStyle=1;overflow=hidden;whiteSpace=wrap;html=1;" parent="FYp_cTO7IGaWXqHn_5oI-255" vertex="1">
          <mxGeometry width="30" height="30" as="geometry">
            <mxRectangle width="30" height="30" as="alternateBounds" />
          </mxGeometry>
        </mxCell>
        <mxCell id="FYp_cTO7IGaWXqHn_5oI-257" value="idMissao" style="shape=partialRectangle;connectable=0;fillColor=none;top=0;left=0;bottom=0;right=0;align=left;spacingLeft=6;fontStyle=5;overflow=hidden;whiteSpace=wrap;html=1;" parent="FYp_cTO7IGaWXqHn_5oI-255" vertex="1">
          <mxGeometry x="30" width="150" height="30" as="geometry">
            <mxRectangle width="150" height="30" as="alternateBounds" />
          </mxGeometry>
        </mxCell>
        <mxCell id="FYp_cTO7IGaWXqHn_5oI-258" value="" style="shape=tableRow;horizontal=0;startSize=0;swimlaneHead=0;swimlaneBody=0;fillColor=none;collapsible=0;dropTarget=0;points=[[0,0.5],[1,0.5]];portConstraint=eastwest;top=0;left=0;right=0;bottom=0;" parent="FYp_cTO7IGaWXqHn_5oI-254" vertex="1">
          <mxGeometry y="60" width="180" height="30" as="geometry" />
        </mxCell>
        <mxCell id="FYp_cTO7IGaWXqHn_5oI-259" value="" style="shape=partialRectangle;connectable=0;fillColor=none;top=0;left=0;bottom=0;right=0;editable=1;overflow=hidden;whiteSpace=wrap;html=1;" parent="FYp_cTO7IGaWXqHn_5oI-258" vertex="1">
          <mxGeometry width="30" height="30" as="geometry">
            <mxRectangle width="30" height="30" as="alternateBounds" />
          </mxGeometry>
        </mxCell>
        <mxCell id="FYp_cTO7IGaWXqHn_5oI-260" value="descricao" style="shape=partialRectangle;connectable=0;fillColor=none;top=0;left=0;bottom=0;right=0;align=left;spacingLeft=6;overflow=hidden;whiteSpace=wrap;html=1;" parent="FYp_cTO7IGaWXqHn_5oI-258" vertex="1">
          <mxGeometry x="30" width="150" height="30" as="geometry">
            <mxRectangle width="150" height="30" as="alternateBounds" />
          </mxGeometry>
        </mxCell>
        <mxCell id="FYp_cTO7IGaWXqHn_5oI-261" value="" style="shape=tableRow;horizontal=0;startSize=0;swimlaneHead=0;swimlaneBody=0;fillColor=none;collapsible=0;dropTarget=0;points=[[0,0.5],[1,0.5]];portConstraint=eastwest;top=0;left=0;right=0;bottom=0;" parent="FYp_cTO7IGaWXqHn_5oI-254" vertex="1">
          <mxGeometry y="90" width="180" height="30" as="geometry" />
        </mxCell>
        <mxCell id="FYp_cTO7IGaWXqHn_5oI-262" value="" style="shape=partialRectangle;connectable=0;fillColor=none;top=0;left=0;bottom=0;right=0;editable=1;overflow=hidden;whiteSpace=wrap;html=1;" parent="FYp_cTO7IGaWXqHn_5oI-261" vertex="1">
          <mxGeometry width="30" height="30" as="geometry">
            <mxRectangle width="30" height="30" as="alternateBounds" />
          </mxGeometry>
        </mxCell>
        <mxCell id="FYp_cTO7IGaWXqHn_5oI-263" value="local" style="shape=partialRectangle;connectable=0;fillColor=none;top=0;left=0;bottom=0;right=0;align=left;spacingLeft=6;overflow=hidden;whiteSpace=wrap;html=1;" parent="FYp_cTO7IGaWXqHn_5oI-261" vertex="1">
          <mxGeometry x="30" width="150" height="30" as="geometry">
            <mxRectangle width="150" height="30" as="alternateBounds" />
          </mxGeometry>
        </mxCell>
        <mxCell id="FYp_cTO7IGaWXqHn_5oI-264" value="" style="shape=tableRow;horizontal=0;startSize=0;swimlaneHead=0;swimlaneBody=0;fillColor=none;collapsible=0;dropTarget=0;points=[[0,0.5],[1,0.5]];portConstraint=eastwest;top=0;left=0;right=0;bottom=0;" parent="FYp_cTO7IGaWXqHn_5oI-254" vertex="1">
          <mxGeometry y="120" width="180" height="30" as="geometry" />
        </mxCell>
        <mxCell id="FYp_cTO7IGaWXqHn_5oI-265" value="" style="shape=partialRectangle;connectable=0;fillColor=none;top=0;left=0;bottom=0;right=0;editable=1;overflow=hidden;whiteSpace=wrap;html=1;" parent="FYp_cTO7IGaWXqHn_5oI-264" vertex="1">
          <mxGeometry width="30" height="30" as="geometry">
            <mxRectangle width="30" height="30" as="alternateBounds" />
          </mxGeometry>
        </mxCell>
        <mxCell id="FYp_cTO7IGaWXqHn_5oI-266" value="recompensas" style="shape=partialRectangle;connectable=0;fillColor=none;top=0;left=0;bottom=0;right=0;align=left;spacingLeft=6;overflow=hidden;whiteSpace=wrap;html=1;" parent="FYp_cTO7IGaWXqHn_5oI-264" vertex="1">
          <mxGeometry x="30" width="150" height="30" as="geometry">
            <mxRectangle width="150" height="30" as="alternateBounds" />
          </mxGeometry>
        </mxCell>
        <mxCell id="FYp_cTO7IGaWXqHn_5oI-268" style="edgeStyle=orthogonalEdgeStyle;rounded=0;orthogonalLoop=1;jettySize=auto;html=1;entryX=0;entryY=0.5;entryDx=0;entryDy=0;" parent="1" source="FYp_cTO7IGaWXqHn_5oI-267" target="pf99oCX7zV8_EHTEWgkM-24" edge="1">
          <mxGeometry relative="1" as="geometry">
            <mxPoint x="-20" y="630" as="targetPoint" />
          </mxGeometry>
        </mxCell>
        <mxCell id="FYp_cTO7IGaWXqHn_5oI-271" value="( 1, N )" style="edgeLabel;html=1;align=center;verticalAlign=middle;resizable=0;points=[];" parent="FYp_cTO7IGaWXqHn_5oI-268" vertex="1" connectable="0">
          <mxGeometry x="0.1428" y="-1" relative="1" as="geometry">
            <mxPoint as="offset" />
          </mxGeometry>
        </mxCell>
        <mxCell id="FYp_cTO7IGaWXqHn_5oI-269" style="edgeStyle=orthogonalEdgeStyle;rounded=0;orthogonalLoop=1;jettySize=auto;html=1;" parent="1" source="FYp_cTO7IGaWXqHn_5oI-267" edge="1">
          <mxGeometry relative="1" as="geometry">
            <mxPoint x="-340" y="765" as="targetPoint" />
          </mxGeometry>
        </mxCell>
        <mxCell id="FYp_cTO7IGaWXqHn_5oI-270" value="( 1, N )" style="edgeLabel;html=1;align=center;verticalAlign=middle;resizable=0;points=[];" parent="FYp_cTO7IGaWXqHn_5oI-269" vertex="1" connectable="0">
          <mxGeometry x="-0.1702" y="-3" relative="1" as="geometry">
            <mxPoint as="offset" />
          </mxGeometry>
        </mxCell>
        <mxCell id="FYp_cTO7IGaWXqHn_5oI-267" value="MissoesStatus" style="shape=rhombus;perimeter=rhombusPerimeter;whiteSpace=wrap;html=1;align=center;" parent="1" vertex="1">
          <mxGeometry x="-223" y="710" width="170" height="110" as="geometry" />
        </mxCell>
        <mxCell id="FYp_cTO7IGaWXqHn_5oI-300" style="edgeStyle=orthogonalEdgeStyle;rounded=0;orthogonalLoop=1;jettySize=auto;html=1;entryX=0;entryY=0.5;entryDx=0;entryDy=0;" parent="1" source="FYp_cTO7IGaWXqHn_5oI-297" target="FYp_cTO7IGaWXqHn_5oI-124" edge="1">
          <mxGeometry relative="1" as="geometry" />
        </mxCell>
        <mxCell id="FYp_cTO7IGaWXqHn_5oI-302" value="( 1 , N )" style="edgeLabel;html=1;align=center;verticalAlign=middle;resizable=0;points=[];" parent="FYp_cTO7IGaWXqHn_5oI-300" vertex="1" connectable="0">
          <mxGeometry x="0.0186" y="1" relative="1" as="geometry">
            <mxPoint as="offset" />
          </mxGeometry>
        </mxCell>
        <mxCell id="FYp_cTO7IGaWXqHn_5oI-297" value="Especiais" style="shape=rhombus;perimeter=rhombusPerimeter;whiteSpace=wrap;html=1;align=center;" parent="1" vertex="1">
          <mxGeometry x="610" y="100" width="170" height="110" as="geometry" />
        </mxCell>
        <mxCell id="FYp_cTO7IGaWXqHn_5oI-299" style="edgeStyle=orthogonalEdgeStyle;rounded=0;orthogonalLoop=1;jettySize=auto;html=1;entryX=0.582;entryY=-0.014;entryDx=0;entryDy=0;entryPerimeter=0;" parent="1" source="FYp_cTO7IGaWXqHn_5oI-297" target="FYp_cTO7IGaWXqHn_5oI-1" edge="1">
          <mxGeometry relative="1" as="geometry" />
        </mxCell>
        <mxCell id="FYp_cTO7IGaWXqHn_5oI-301" value="( 1, 1 )" style="edgeLabel;html=1;align=center;verticalAlign=middle;resizable=0;points=[];" parent="FYp_cTO7IGaWXqHn_5oI-299" vertex="1" connectable="0">
          <mxGeometry x="-0.0758" y="-2" relative="1" as="geometry">
            <mxPoint as="offset" />
          </mxGeometry>
        </mxCell>
        <mxCell id="FYp_cTO7IGaWXqHn_5oI-320" style="edgeStyle=orthogonalEdgeStyle;rounded=0;orthogonalLoop=1;jettySize=auto;html=1;entryX=0.5;entryY=0;entryDx=0;entryDy=0;" parent="1" source="FYp_cTO7IGaWXqHn_5oI-317" target="FYp_cTO7IGaWXqHn_5oI-101" edge="1">
          <mxGeometry relative="1" as="geometry" />
        </mxCell>
        <mxCell id="FYp_cTO7IGaWXqHn_5oI-324" value="( 0, N )" style="edgeLabel;html=1;align=center;verticalAlign=middle;resizable=0;points=[];" parent="FYp_cTO7IGaWXqHn_5oI-320" vertex="1" connectable="0">
          <mxGeometry x="-0.0922" y="-2" relative="1" as="geometry">
            <mxPoint x="13" as="offset" />
          </mxGeometry>
        </mxCell>
        <mxCell id="pf99oCX7zV8_EHTEWgkM-27" style="edgeStyle=orthogonalEdgeStyle;rounded=0;orthogonalLoop=1;jettySize=auto;html=1;entryX=1;entryY=0.5;entryDx=0;entryDy=0;" parent="1" source="FYp_cTO7IGaWXqHn_5oI-317" target="pf99oCX7zV8_EHTEWgkM-24" edge="1">
          <mxGeometry relative="1" as="geometry" />
        </mxCell>
        <mxCell id="pf99oCX7zV8_EHTEWgkM-28" value="(1, N)" style="edgeLabel;html=1;align=center;verticalAlign=middle;resizable=0;points=[];" parent="pf99oCX7zV8_EHTEWgkM-27" vertex="1" connectable="0">
          <mxGeometry x="0.1637" y="4" relative="1" as="geometry">
            <mxPoint x="1" as="offset" />
          </mxGeometry>
        </mxCell>
        <mxCell id="FYp_cTO7IGaWXqHn_5oI-317" value="ListaItens" style="shape=rhombus;perimeter=rhombusPerimeter;whiteSpace=wrap;html=1;align=center;" parent="1" vertex="1">
          <mxGeometry x="-255" y="1280" width="170" height="110" as="geometry" />
        </mxCell>
        <mxCell id="82nMPEXxRvQ2RpV__CUh-2" style="edgeStyle=orthogonalEdgeStyle;rounded=0;orthogonalLoop=1;jettySize=auto;html=1;" parent="1" source="82nMPEXxRvQ2RpV__CUh-1" target="FYp_cTO7IGaWXqHn_5oI-102" edge="1">
          <mxGeometry relative="1" as="geometry" />
        </mxCell>
        <mxCell id="82nMPEXxRvQ2RpV__CUh-1" value="&lt;div&gt;Especi-&lt;br&gt;alizacao&lt;/div&gt;" style="strokeWidth=2;html=1;shape=mxgraph.flowchart.extract_or_measurement;whiteSpace=wrap;" parent="1" vertex="1">
          <mxGeometry x="27" y="1694" width="95" height="60" as="geometry" />
        </mxCell>
        <mxCell id="82nMPEXxRvQ2RpV__CUh-3" value="Material" style="shape=table;startSize=30;container=1;collapsible=1;childLayout=tableLayout;fixedRows=1;rowLines=0;fontStyle=1;align=center;resizeLast=1;html=1;" parent="1" vertex="1">
          <mxGeometry x="-300" y="1910" width="180" height="90" as="geometry" />
        </mxCell>
        <mxCell id="82nMPEXxRvQ2RpV__CUh-32" style="shape=tableRow;horizontal=0;startSize=0;swimlaneHead=0;swimlaneBody=0;fillColor=none;collapsible=0;dropTarget=0;points=[[0,0.5],[1,0.5]];portConstraint=eastwest;top=0;left=0;right=0;bottom=0;" parent="82nMPEXxRvQ2RpV__CUh-3" vertex="1">
          <mxGeometry y="30" width="180" height="30" as="geometry" />
        </mxCell>
        <mxCell id="82nMPEXxRvQ2RpV__CUh-33" style="shape=partialRectangle;connectable=0;fillColor=none;top=0;left=0;bottom=0;right=0;editable=1;overflow=hidden;whiteSpace=wrap;html=1;" parent="82nMPEXxRvQ2RpV__CUh-32" vertex="1">
          <mxGeometry width="30" height="30" as="geometry">
            <mxRectangle width="30" height="30" as="alternateBounds" />
          </mxGeometry>
        </mxCell>
        <mxCell id="82nMPEXxRvQ2RpV__CUh-34" value="tipo" style="shape=partialRectangle;connectable=0;fillColor=none;top=0;left=0;bottom=0;right=0;align=left;spacingLeft=6;overflow=hidden;whiteSpace=wrap;html=1;" parent="82nMPEXxRvQ2RpV__CUh-32" vertex="1">
          <mxGeometry x="30" width="150" height="30" as="geometry">
            <mxRectangle width="150" height="30" as="alternateBounds" />
          </mxGeometry>
        </mxCell>
        <mxCell id="pf99oCX7zV8_EHTEWgkM-29" style="shape=tableRow;horizontal=0;startSize=0;swimlaneHead=0;swimlaneBody=0;fillColor=none;collapsible=0;dropTarget=0;points=[[0,0.5],[1,0.5]];portConstraint=eastwest;top=0;left=0;right=0;bottom=0;" parent="82nMPEXxRvQ2RpV__CUh-3" vertex="1">
          <mxGeometry y="60" width="180" height="30" as="geometry" />
        </mxCell>
        <mxCell id="pf99oCX7zV8_EHTEWgkM-30" style="shape=partialRectangle;connectable=0;fillColor=none;top=0;left=0;bottom=0;right=0;editable=1;overflow=hidden;whiteSpace=wrap;html=1;" parent="pf99oCX7zV8_EHTEWgkM-29" vertex="1">
          <mxGeometry width="30" height="30" as="geometry">
            <mxRectangle width="30" height="30" as="alternateBounds" />
          </mxGeometry>
        </mxCell>
        <mxCell id="pf99oCX7zV8_EHTEWgkM-31" value="preco" style="shape=partialRectangle;connectable=0;fillColor=none;top=0;left=0;bottom=0;right=0;align=left;spacingLeft=6;overflow=hidden;whiteSpace=wrap;html=1;" parent="pf99oCX7zV8_EHTEWgkM-29" vertex="1">
          <mxGeometry x="30" width="150" height="30" as="geometry">
            <mxRectangle width="150" height="30" as="alternateBounds" />
          </mxGeometry>
        </mxCell>
        <mxCell id="82nMPEXxRvQ2RpV__CUh-16" style="edgeStyle=orthogonalEdgeStyle;rounded=0;orthogonalLoop=1;jettySize=auto;html=1;entryX=0.01;entryY=0.97;entryDx=0;entryDy=0;entryPerimeter=0;" parent="1" target="82nMPEXxRvQ2RpV__CUh-1" edge="1">
          <mxGeometry relative="1" as="geometry" />
        </mxCell>
        <mxCell id="82nMPEXxRvQ2RpV__CUh-17" value="Arma" style="shape=table;startSize=30;container=1;collapsible=1;childLayout=tableLayout;fixedRows=1;rowLines=0;fontStyle=1;align=center;resizeLast=1;html=1;" parent="1" vertex="1">
          <mxGeometry x="270" y="1930" width="180" height="150" as="geometry" />
        </mxCell>
        <mxCell id="82nMPEXxRvQ2RpV__CUh-21" value="" style="shape=tableRow;horizontal=0;startSize=0;swimlaneHead=0;swimlaneBody=0;fillColor=none;collapsible=0;dropTarget=0;points=[[0,0.5],[1,0.5]];portConstraint=eastwest;top=0;left=0;right=0;bottom=0;" parent="82nMPEXxRvQ2RpV__CUh-17" vertex="1">
          <mxGeometry y="30" width="180" height="30" as="geometry" />
        </mxCell>
        <mxCell id="82nMPEXxRvQ2RpV__CUh-22" value="" style="shape=partialRectangle;connectable=0;fillColor=none;top=0;left=0;bottom=0;right=0;editable=1;overflow=hidden;whiteSpace=wrap;html=1;" parent="82nMPEXxRvQ2RpV__CUh-21" vertex="1">
          <mxGeometry width="30" height="30" as="geometry">
            <mxRectangle width="30" height="30" as="alternateBounds" />
          </mxGeometry>
        </mxCell>
        <mxCell id="82nMPEXxRvQ2RpV__CUh-23" value="tipo" style="shape=partialRectangle;connectable=0;fillColor=none;top=0;left=0;bottom=0;right=0;align=left;spacingLeft=6;overflow=hidden;whiteSpace=wrap;html=1;" parent="82nMPEXxRvQ2RpV__CUh-21" vertex="1">
          <mxGeometry x="30" width="150" height="30" as="geometry">
            <mxRectangle width="150" height="30" as="alternateBounds" />
          </mxGeometry>
        </mxCell>
        <mxCell id="82nMPEXxRvQ2RpV__CUh-24" value="" style="shape=tableRow;horizontal=0;startSize=0;swimlaneHead=0;swimlaneBody=0;fillColor=none;collapsible=0;dropTarget=0;points=[[0,0.5],[1,0.5]];portConstraint=eastwest;top=0;left=0;right=0;bottom=0;" parent="82nMPEXxRvQ2RpV__CUh-17" vertex="1">
          <mxGeometry y="60" width="180" height="30" as="geometry" />
        </mxCell>
        <mxCell id="82nMPEXxRvQ2RpV__CUh-25" value="" style="shape=partialRectangle;connectable=0;fillColor=none;top=0;left=0;bottom=0;right=0;editable=1;overflow=hidden;whiteSpace=wrap;html=1;" parent="82nMPEXxRvQ2RpV__CUh-24" vertex="1">
          <mxGeometry width="30" height="30" as="geometry">
            <mxRectangle width="30" height="30" as="alternateBounds" />
          </mxGeometry>
        </mxCell>
        <mxCell id="82nMPEXxRvQ2RpV__CUh-26" value="raridade" style="shape=partialRectangle;connectable=0;fillColor=none;top=0;left=0;bottom=0;right=0;align=left;spacingLeft=6;overflow=hidden;whiteSpace=wrap;html=1;" parent="82nMPEXxRvQ2RpV__CUh-24" vertex="1">
          <mxGeometry x="30" width="150" height="30" as="geometry">
            <mxRectangle width="150" height="30" as="alternateBounds" />
          </mxGeometry>
        </mxCell>
        <mxCell id="82nMPEXxRvQ2RpV__CUh-27" value="" style="shape=tableRow;horizontal=0;startSize=0;swimlaneHead=0;swimlaneBody=0;fillColor=none;collapsible=0;dropTarget=0;points=[[0,0.5],[1,0.5]];portConstraint=eastwest;top=0;left=0;right=0;bottom=0;" parent="82nMPEXxRvQ2RpV__CUh-17" vertex="1">
          <mxGeometry y="90" width="180" height="30" as="geometry" />
        </mxCell>
        <mxCell id="82nMPEXxRvQ2RpV__CUh-28" value="" style="shape=partialRectangle;connectable=0;fillColor=none;top=0;left=0;bottom=0;right=0;editable=1;overflow=hidden;whiteSpace=wrap;html=1;" parent="82nMPEXxRvQ2RpV__CUh-27" vertex="1">
          <mxGeometry width="30" height="30" as="geometry">
            <mxRectangle width="30" height="30" as="alternateBounds" />
          </mxGeometry>
        </mxCell>
        <mxCell id="82nMPEXxRvQ2RpV__CUh-29" value="nivel" style="shape=partialRectangle;connectable=0;fillColor=none;top=0;left=0;bottom=0;right=0;align=left;spacingLeft=6;overflow=hidden;whiteSpace=wrap;html=1;" parent="82nMPEXxRvQ2RpV__CUh-27" vertex="1">
          <mxGeometry x="30" width="150" height="30" as="geometry">
            <mxRectangle width="150" height="30" as="alternateBounds" />
          </mxGeometry>
        </mxCell>
        <mxCell id="82nMPEXxRvQ2RpV__CUh-39" value="" style="shape=tableRow;horizontal=0;startSize=0;swimlaneHead=0;swimlaneBody=0;fillColor=none;collapsible=0;dropTarget=0;points=[[0,0.5],[1,0.5]];portConstraint=eastwest;top=0;left=0;right=0;bottom=0;" parent="82nMPEXxRvQ2RpV__CUh-17" vertex="1">
          <mxGeometry y="120" width="180" height="30" as="geometry" />
        </mxCell>
        <mxCell id="82nMPEXxRvQ2RpV__CUh-40" value="" style="shape=partialRectangle;connectable=0;fillColor=none;top=0;left=0;bottom=0;right=0;editable=1;overflow=hidden;whiteSpace=wrap;html=1;" parent="82nMPEXxRvQ2RpV__CUh-39" vertex="1">
          <mxGeometry width="30" height="30" as="geometry">
            <mxRectangle width="30" height="30" as="alternateBounds" />
          </mxGeometry>
        </mxCell>
        <mxCell id="82nMPEXxRvQ2RpV__CUh-41" value="passiva" style="shape=partialRectangle;connectable=0;fillColor=none;top=0;left=0;bottom=0;right=0;align=left;spacingLeft=6;overflow=hidden;whiteSpace=wrap;html=1;" parent="82nMPEXxRvQ2RpV__CUh-39" vertex="1">
          <mxGeometry x="30" width="150" height="30" as="geometry">
            <mxRectangle width="150" height="30" as="alternateBounds" />
          </mxGeometry>
        </mxCell>
        <mxCell id="82nMPEXxRvQ2RpV__CUh-30" style="edgeStyle=orthogonalEdgeStyle;rounded=0;orthogonalLoop=1;jettySize=auto;html=1;entryX=0.99;entryY=0.97;entryDx=0;entryDy=0;entryPerimeter=0;" parent="1" target="82nMPEXxRvQ2RpV__CUh-1" edge="1">
          <mxGeometry relative="1" as="geometry" />
        </mxCell>
        <mxCell id="82nMPEXxRvQ2RpV__CUh-31" style="edgeStyle=orthogonalEdgeStyle;rounded=0;orthogonalLoop=1;jettySize=auto;html=1;entryX=0.99;entryY=0.97;entryDx=0;entryDy=0;entryPerimeter=0;" parent="1" source="82nMPEXxRvQ2RpV__CUh-21" target="82nMPEXxRvQ2RpV__CUh-1" edge="1">
          <mxGeometry relative="1" as="geometry" />
        </mxCell>
        <mxCell id="82nMPEXxRvQ2RpV__CUh-35" style="edgeStyle=orthogonalEdgeStyle;rounded=0;orthogonalLoop=1;jettySize=auto;html=1;entryX=0.01;entryY=0.97;entryDx=0;entryDy=0;entryPerimeter=0;" parent="1" source="82nMPEXxRvQ2RpV__CUh-3" target="82nMPEXxRvQ2RpV__CUh-1" edge="1">
          <mxGeometry relative="1" as="geometry" />
        </mxCell>
        <mxCell id="82nMPEXxRvQ2RpV__CUh-43" style="edgeStyle=orthogonalEdgeStyle;rounded=0;orthogonalLoop=1;jettySize=auto;html=1;entryX=0.75;entryY=0;entryDx=0;entryDy=0;" parent="1" edge="1">
          <mxGeometry relative="1" as="geometry">
            <mxPoint x="555" y="1830" as="sourcePoint" />
            <mxPoint x="400" y="1930" as="targetPoint" />
          </mxGeometry>
        </mxCell>
        <mxCell id="82nMPEXxRvQ2RpV__CUh-45" value="(1, 1)" style="edgeLabel;html=1;align=center;verticalAlign=middle;resizable=0;points=[];" parent="82nMPEXxRvQ2RpV__CUh-43" vertex="1" connectable="0">
          <mxGeometry x="-0.349" y="-1" relative="1" as="geometry">
            <mxPoint x="-26" y="1" as="offset" />
          </mxGeometry>
        </mxCell>
        <mxCell id="82nMPEXxRvQ2RpV__CUh-44" style="edgeStyle=orthogonalEdgeStyle;rounded=0;orthogonalLoop=1;jettySize=auto;html=1;entryX=1;entryY=0.5;entryDx=0;entryDy=0;" parent="1" source="82nMPEXxRvQ2RpV__CUh-42" target="FYp_cTO7IGaWXqHn_5oI-15" edge="1">
          <mxGeometry relative="1" as="geometry" />
        </mxCell>
        <mxCell id="82nMPEXxRvQ2RpV__CUh-46" value="(0, N)" style="edgeLabel;html=1;align=center;verticalAlign=middle;resizable=0;points=[];" parent="82nMPEXxRvQ2RpV__CUh-44" vertex="1" connectable="0">
          <mxGeometry x="-0.8621" y="-3" relative="1" as="geometry">
            <mxPoint as="offset" />
          </mxGeometry>
        </mxCell>
        <mxCell id="82nMPEXxRvQ2RpV__CUh-42" value="ArmaAtt" style="shape=rhombus;perimeter=rhombusPerimeter;whiteSpace=wrap;html=1;align=center;" parent="1" vertex="1">
          <mxGeometry x="560" y="1800" width="120" height="60" as="geometry" />
        </mxCell>
        <mxCell id="82nMPEXxRvQ2RpV__CUh-48" style="edgeStyle=orthogonalEdgeStyle;rounded=0;orthogonalLoop=1;jettySize=auto;html=1;entryX=0;entryY=0.5;entryDx=0;entryDy=0;" parent="1" source="82nMPEXxRvQ2RpV__CUh-47" target="FYp_cTO7IGaWXqHn_5oI-2" edge="1">
          <mxGeometry relative="1" as="geometry" />
        </mxCell>
        <mxCell id="82nMPEXxRvQ2RpV__CUh-52" value="(0, 1)" style="edgeLabel;html=1;align=center;verticalAlign=middle;resizable=0;points=[];" parent="82nMPEXxRvQ2RpV__CUh-48" vertex="1" connectable="0">
          <mxGeometry x="0.0602" y="-5" relative="1" as="geometry">
            <mxPoint x="17" y="1" as="offset" />
          </mxGeometry>
        </mxCell>
        <mxCell id="82nMPEXxRvQ2RpV__CUh-49" style="edgeStyle=orthogonalEdgeStyle;rounded=0;orthogonalLoop=1;jettySize=auto;html=1;entryX=1;entryY=0.5;entryDx=0;entryDy=0;" parent="1" source="82nMPEXxRvQ2RpV__CUh-47" target="82nMPEXxRvQ2RpV__CUh-21" edge="1">
          <mxGeometry relative="1" as="geometry" />
        </mxCell>
        <mxCell id="82nMPEXxRvQ2RpV__CUh-51" value="(0, 1)" style="edgeLabel;html=1;align=center;verticalAlign=middle;resizable=0;points=[];" parent="82nMPEXxRvQ2RpV__CUh-49" vertex="1" connectable="0">
          <mxGeometry x="-0.2548" y="-4" relative="1" as="geometry">
            <mxPoint y="-1" as="offset" />
          </mxGeometry>
        </mxCell>
        <mxCell id="82nMPEXxRvQ2RpV__CUh-47" value="Equipado" style="shape=rhombus;perimeter=rhombusPerimeter;whiteSpace=wrap;html=1;align=center;" parent="1" vertex="1">
          <mxGeometry x="880" y="910" width="120" height="60" as="geometry" />
        </mxCell>
        <mxCell id="pf99oCX7zV8_EHTEWgkM-7" style="edgeStyle=orthogonalEdgeStyle;rounded=0;orthogonalLoop=1;jettySize=auto;html=1;entryX=0.5;entryY=0;entryDx=0;entryDy=0;" parent="1" source="pf99oCX7zV8_EHTEWgkM-6" target="FYp_cTO7IGaWXqHn_5oI-182" edge="1">
          <mxGeometry relative="1" as="geometry" />
        </mxCell>
        <mxCell id="pf99oCX7zV8_EHTEWgkM-6" value="dataHora" style="ellipse;whiteSpace=wrap;html=1;align=center;" parent="1" vertex="1">
          <mxGeometry x="310" y="340" width="100" height="40" as="geometry" />
        </mxCell>
        <mxCell id="pf99oCX7zV8_EHTEWgkM-10" style="edgeStyle=orthogonalEdgeStyle;rounded=0;orthogonalLoop=1;jettySize=auto;html=1;entryX=0.5;entryY=1;entryDx=0;entryDy=0;" parent="1" source="pf99oCX7zV8_EHTEWgkM-9" target="FYp_cTO7IGaWXqHn_5oI-267" edge="1">
          <mxGeometry relative="1" as="geometry" />
        </mxCell>
        <mxCell id="pf99oCX7zV8_EHTEWgkM-9" value="Status" style="ellipse;whiteSpace=wrap;html=1;align=center;" parent="1" vertex="1">
          <mxGeometry x="-188" y="890" width="100" height="40" as="geometry" />
        </mxCell>
        <mxCell id="pf99oCX7zV8_EHTEWgkM-15" style="edgeStyle=orthogonalEdgeStyle;rounded=0;orthogonalLoop=1;jettySize=auto;html=1;" parent="1" source="pf99oCX7zV8_EHTEWgkM-14" target="FYp_cTO7IGaWXqHn_5oI-317" edge="1">
          <mxGeometry relative="1" as="geometry" />
        </mxCell>
        <mxCell id="pf99oCX7zV8_EHTEWgkM-14" value="Quantidade" style="ellipse;whiteSpace=wrap;html=1;align=center;" parent="1" vertex="1">
          <mxGeometry x="-10" y="1315" width="100" height="40" as="geometry" />
        </mxCell>
      </root>
    </mxGraphModel>
  </diagram>
</mxfile>
